<svg width="41" height="28" viewBox="0 0 41 28" fill="none" xmlns="http://www.w3.org/2000/svg">
<path d="M33.25 8.3953L34.1757 7.55531C33.9388 7.2942 33.6026 7.1453 33.25 7.1453V8.3953ZM39.5 15.2831H40.75C40.75 14.9725 40.6344 14.6731 40.4257 14.4431L39.5 15.2831ZM39.5 22.681L39.5002 23.931C40.1905 23.9309 40.75 23.3713 40.75 22.681H39.5ZM35.7763 22.6815L34.5977 23.0978V23.0979L35.7763 22.6815ZM30.7237 22.6815L31.9023 23.0979L31.9023 23.0978L30.7237 22.6815ZM27 8.3953V7.1453C26.3096 7.1453 25.75 7.70494 25.75 8.3953H27ZM2 0.00244141C1.30964 0.00244141 0.75 0.562085 0.75 1.25244C0.75 1.9428 1.30964 2.50244 2 2.50244V0.00244141ZM27 1.25244H28.25C28.25 0.562085 27.6904 0.00244141 27 0.00244141V1.25244ZM7.35748 21.431C6.66712 21.4308 6.10733 21.9903 6.10714 22.6807C6.10696 23.371 6.66645 23.9308 7.35681 23.931L7.35748 21.431ZM8.25 13.2167C8.94036 13.2167 9.5 12.6571 9.5 11.9667C9.5 11.2764 8.94036 10.7167 8.25 10.7167V13.2167ZM5.57143 10.7167C4.88107 10.7167 4.32143 11.2764 4.32143 11.9667C4.32143 12.6571 4.88107 13.2167 5.57143 13.2167V10.7167ZM8.25 18.5739C8.94036 18.5739 9.5 18.0142 9.5 17.3239C9.5 16.6335 8.94036 16.0739 8.25 16.0739V18.5739ZM7.35714 16.0739C6.66679 16.0739 6.10714 16.6335 6.10714 17.3239C6.10714 18.0142 6.66679 18.5739 7.35714 18.5739V16.0739ZM8.25 7.85958C8.94036 7.85958 9.5 7.29994 9.5 6.60958C9.5 5.91923 8.94036 5.35958 8.25 5.35958V7.85958ZM3.78571 5.35958C3.09536 5.35958 2.53571 5.91923 2.53571 6.60958C2.53571 7.29994 3.09536 7.85958 3.78571 7.85958V5.35958ZM32.3243 9.23529L38.5743 16.123L40.4257 14.4431L34.1757 7.55531L32.3243 9.23529ZM38.25 15.2831V22.681H40.75V15.2831H38.25ZM39.4998 21.431L35.7762 21.4315L35.7765 23.9315L39.5002 23.931L39.4998 21.431ZM36.955 22.2652C36.4165 20.7407 34.9628 19.6453 33.25 19.6453V22.1453C33.8702 22.1453 34.4011 22.5412 34.5977 23.0978L36.955 22.2652ZM33.25 19.6453C31.5372 19.6453 30.0835 20.7407 29.545 22.2652L31.9023 23.0978C32.0989 22.5412 32.6298 22.1453 33.25 22.1453V19.6453ZM30.7238 21.4315L27.0002 21.431L26.9998 23.931L30.7235 23.9315L30.7238 21.4315ZM28.25 22.681V8.3953H25.75V22.681H28.25ZM27 9.6453H33.25V7.1453H27V9.6453ZM2 2.50244H27V0.00244141H2V2.50244ZM25.75 1.25244V22.681H28.25V1.25244H25.75ZM27 21.431L14.3477 21.4315L14.3478 23.9315L27.0001 23.931L27 21.431ZM15.5264 22.2652C14.9879 20.7407 13.5342 19.6453 11.8214 19.6453V22.1453C12.4416 22.1453 12.9725 22.5412 13.1691 23.0978L15.5264 22.2652ZM11.8214 19.6453C10.1087 19.6453 8.65495 20.7407 8.11645 22.2652L10.4737 23.0978C10.6704 22.5412 11.2013 22.1453 11.8214 22.1453V19.6453ZM9.29543 21.4315L7.35748 21.431L7.35681 23.931L9.29475 23.9315L9.29543 21.4315ZM33.25 22.1453C34.039 22.1453 34.6786 22.7849 34.6786 23.5739H37.1786C37.1786 21.4042 35.4197 19.6453 33.25 19.6453V22.1453ZM34.6786 23.5739C34.6786 24.3628 34.039 25.0024 33.25 25.0024V27.5024C35.4197 27.5024 37.1786 25.7436 37.1786 23.5739H34.6786ZM33.25 25.0024C32.461 25.0024 31.8214 24.3628 31.8214 23.5739H29.3214C29.3214 25.7436 31.0803 27.5024 33.25 27.5024V25.0024ZM31.8214 23.5739C31.8214 22.7849 32.461 22.1453 33.25 22.1453V19.6453C31.0803 19.6453 29.3214 21.4042 29.3214 23.5739H31.8214ZM11.8214 22.1453C12.6104 22.1453 13.25 22.7849 13.25 23.5739H15.75C15.75 21.4042 13.9911 19.6453 11.8214 19.6453V22.1453ZM13.25 23.5739C13.25 24.3628 12.6104 25.0024 11.8214 25.0024V27.5024C13.9911 27.5024 15.75 25.7436 15.75 23.5739H13.25ZM11.8214 25.0024C11.0325 25.0024 10.3929 24.3628 10.3929 23.5739H7.89286C7.89286 25.7436 9.65174 27.5024 11.8214 27.5024V25.0024ZM10.3929 23.5739C10.3929 22.7849 11.0325 22.1453 11.8214 22.1453V19.6453C9.65174 19.6453 7.89286 21.4042 7.89286 23.5739H10.3929ZM8.25 10.7167H5.57143V13.2167H8.25V10.7167ZM8.25 16.0739H7.35714V18.5739H8.25V16.0739ZM8.25 5.35958H3.78571V7.85958H8.25V5.35958ZM29.545 22.2652C29.3999 22.6762 29.3214 23.1172 29.3214 23.5739H31.8214C31.8214 23.4048 31.8503 23.2451 31.9023 23.0979L29.545 22.2652ZM37.1786 23.5739C37.1786 23.1172 37.1001 22.6762 36.955 22.2652L34.5977 23.0979C34.6497 23.2451 34.6786 23.4048 34.6786 23.5739H37.1786ZM8.11645 22.2652C7.97129 22.6762 7.89286 23.1172 7.89286 23.5739H10.3929C10.3929 23.4048 10.4217 23.2451 10.4737 23.0978L8.11645 22.2652ZM15.75 23.5739C15.75 23.1172 15.6716 22.6762 15.5264 22.2652L13.1691 23.0978C13.2211 23.2451 13.25 23.4048 13.25 23.5739H15.75Z" fill="#4F4F4F"/>
</svg>
