<svg width="28" height="28" viewBox="0 0 28 28" fill="none" xmlns="http://www.w3.org/2000/svg">
<path fill-rule="evenodd" clip-rule="evenodd" d="M7.03889 1.64331L11.2221 6.08205C11.7405 6.63249 11.7409 7.49499 11.2229 8.04587L9.20076 10.1966C10.4705 14.0786 13.3101 17.1841 16.9089 18.6526L17.3118 18.809L19.2287 16.7703C19.767 16.1977 20.6645 16.1729 21.2333 16.715L25.4165 21.1537C25.9349 21.7041 25.9353 22.5666 25.4173 23.1175L24.3771 24.2239C22.4771 26.2447 19.5837 26.8142 17.0425 25.6676C13.4503 24.0469 10.5517 22.0659 8.34672 19.7246C6.14175 17.3834 4.27519 14.3047 2.74704 10.4887C1.7092 7.89705 2.15934 4.95918 3.87795 2.94047L4.09937 2.69301L5.03426 1.69866C5.57265 1.12604 6.47015 1.10126 7.03889 1.64331Z" stroke="#4F4F4F" stroke-width="2.5" stroke-linecap="round" stroke-linejoin="round"/>
</svg>
