<svg width="168" height="41" viewBox="0 0 168 41" fill="none" xmlns="http://www.w3.org/2000/svg">
<g clip-path="url(#clip0_2167_600)">
<path d="M0.355896 0.360138H4.4459V27.0921C4.4459 33.5867 9.9011 38.9227 16.5991 38.9227C23.2972 38.9227 28.694 33.5867 28.694 27.0921V0.360138H32.784V24.715C32.784 33.4126 25.491 40.6035 16.5991 40.6035C7.70734 40.6035 0.355896 33.4126 0.355896 24.715V0.360138Z" fill="#231F20"/>
<path d="M54.0599 34.5386C54.4324 33.6792 54.83 32.8334 55.1526 31.9549L40.5498 0.243225H36.0455L40.4914 9.86824L38.356 40.4866H40.0743L41.9122 13.0013L53.0172 37.0625C53.3647 36.2194 53.6956 35.3736 54.0599 34.5386Z" fill="#231F20"/>
<path d="M72.8583 0.243225H71.4959L56.7346 35.3845L56.7179 35.3491C56.6762 35.4443 56.6345 35.5368 56.5928 35.6319C56.2091 36.505 55.8727 37.3997 55.5029 38.2809C55.197 39.0071 54.8884 39.7332 54.5881 40.4621L54.5993 40.4866H56.3787L57.6827 37.4133L69.7164 8.94082L73.0947 40.4866H77.1847L72.8583 0.243225Z" fill="#231F20"/>
<path d="M85.0088 0.243225H89.0988V40.4866H85.0088V0.243225Z" fill="#231F20"/>
<path d="M124.608 0.243225V17.9757C124.633 18.0817 124.649 18.1932 124.649 18.3156V29.6214C124.649 29.7438 124.633 29.8553 124.608 29.9614V40.4866H128.759V0.243225H124.608Z" fill="#231F20"/>
<path d="M126.226 19.5531H104.889V21.1774H126.226V19.5531Z" fill="#231F20"/>
<path d="M100.346 22.406V18.8596C100.346 18.8052 100.357 18.7535 100.362 18.7018V0.243225H96.2723V40.4866H100.362V22.5584C100.357 22.5067 100.346 22.4577 100.346 22.406Z" fill="#231F20"/>
<path d="M167.646 40.4295H163.258C158.634 28.8327 154.011 17.2359 149.445 5.63639L134.862 40.4295H133.082L149.862 0.243225H151.7C156.975 13.6377 162.31 27.035 167.646 40.4295Z" fill="#231F20"/>
</g>
<defs>
<clipPath id="clip0_2167_600">
<rect width="167.29" height="40.3603" fill="white" transform="translate(0.355896 0.243225)"/>
</clipPath>
</defs>
</svg>
